<svg id="Layer_1" data-name="Layer 1" xmlns="http://www.w3.org/2000/svg" viewBox="0 0 1013.92 608.71"><defs><style>.cls-1{fill:none;}.cls-1,.cls-2,.cls-3,.cls-4,.cls-5,.cls-6{stroke:#231f20;stroke-miterlimit:10;stroke-width:2px;}.cls-2{fill:#dc4130;}.cls-3{fill:#3f90b8;}.cls-4{fill:#fff;}.cls-5{fill:#67b255;}.cls-6{fill:#955699;}.cls-7{fill:#231f20;}</style></defs><line class="cls-1" x1="46.48" y1="182.63" x2="91.82" y2="243.04"/><line class="cls-1" x1="137.16" y1="182.63" x2="91.82" y2="243.04"/><circle class="cls-2" cx="91.82" cy="440.95" r="90.82"/><circle class="cls-3" cx="91.82" cy="91.82" r="90.82"/><polygon class="cls-4" points="91.82 39.54 108.8 73.96 146.78 79.48 119.3 106.27 125.79 144.09 91.82 126.23 57.84 144.09 64.33 106.27 36.85 79.48 74.83 73.96 91.82 39.54"/><circle class="cls-5" cx="349.7" cy="91.82" r="90.82"/><polygon class="cls-4" points="349.7 39.54 366.69 73.96 404.67 79.48 377.19 106.27 383.68 144.09 349.7 126.23 315.73 144.09 322.22 106.27 294.74 79.48 332.72 73.96 349.7 39.54"/><circle class="cls-6" cx="635.9" cy="91.82" r="90.82"/><polygon class="cls-4" points="635.9 39.54 652.89 73.96 690.87 79.48 663.39 106.27 669.88 144.09 635.9 126.23 601.93 144.09 608.42 106.27 580.94 79.48 618.92 73.96 635.9 39.54"/><circle class="cls-2" cx="922.11" cy="91.82" r="90.82"/><polygon class="cls-4" points="922.11 39.54 939.09 73.96 977.07 79.48 949.59 106.27 956.08 144.09 922.11 126.23 888.13 144.09 894.62 106.27 867.14 79.48 905.12 73.96 922.11 39.54"/><circle class="cls-4" cx="91.82" cy="440.95" r="77.87"/><path class="cls-7" d="M183.31,483.18a34.74,34.74,0,0,0-2.94-7.63,20.92,20.92,0,0,0-11.71-10,27.17,27.17,0,0,0-9.16-1.41,26.78,26.78,0,0,0-13.18,3.08,25.79,25.79,0,0,0-9,8.23,37.14,37.14,0,0,0-5.15,11.7,54.44,54.44,0,0,0,0,26.76,37.14,37.14,0,0,0,5.15,11.7,25.89,25.89,0,0,0,9,8.23A26.78,26.78,0,0,0,159.5,537a23.7,23.7,0,0,0,9.9-1.94,21.91,21.91,0,0,0,7.35-5.35,25.09,25.09,0,0,0,4.82-8,37.72,37.72,0,0,0,2.27-9.76h16.32a45,45,0,0,1-3.68,15.65A38.16,38.16,0,0,1,188,539.83a37.61,37.61,0,0,1-12.57,8,43.68,43.68,0,0,1-15.92,2.81,45,45,0,0,1-19.2-4,42.18,42.18,0,0,1-14.38-10.77,48.18,48.18,0,0,1-9-15.92,61,61,0,0,1,0-38.65,48.29,48.29,0,0,1,9-15.92,43,43,0,0,1,14.38-10.84,44.47,44.47,0,0,1,19.2-4,50.24,50.24,0,0,1,15.11,2.21,39,39,0,0,1,12.51,6.42,33.41,33.41,0,0,1,8.76,10.23A35.68,35.68,0,0,1,200,483.18Z" transform="translate(-63.98 -58.78)"/><circle class="cls-3" cx="416.96" cy="456.04" r="90.82"/><circle class="cls-4" cx="416.96" cy="456.04" r="77.87"/><path class="cls-7" d="M484.64,465.63a44.53,44.53,0,0,1,19.2,4,43.12,43.12,0,0,1,14.38,10.84,48.29,48.29,0,0,1,9,15.92,61.07,61.07,0,0,1,0,38.66,48.39,48.39,0,0,1-9,15.92,42.38,42.38,0,0,1-14.38,10.76,48.64,48.64,0,0,1-38.4,0A42.38,42.38,0,0,1,451.06,551a48.19,48.19,0,0,1-9-15.92,60.88,60.88,0,0,1,0-38.66,48.09,48.09,0,0,1,9-15.92,43.12,43.12,0,0,1,14.38-10.84A44.5,44.5,0,0,1,484.64,465.63Zm0,13.65a26.8,26.8,0,0,0-13.18,3.07,25.89,25.89,0,0,0-9,8.23,37.24,37.24,0,0,0-5.15,11.7,54.44,54.44,0,0,0,0,26.76,37.14,37.14,0,0,0,5.15,11.7,25.79,25.79,0,0,0,9,8.23,29.74,29.74,0,0,0,26.36,0,25.79,25.79,0,0,0,9-8.23A37.37,37.37,0,0,0,512,529a54.44,54.44,0,0,0,0-26.76,37.47,37.47,0,0,0-5.15-11.7,25.89,25.89,0,0,0-9-8.23A26.8,26.8,0,0,0,484.64,479.28Z" transform="translate(-63.98 -58.78)"/><path class="cls-6" d="M896,424H776.56a90.82,90.82,0,0,0,0,181.63H896A90.82,90.82,0,0,0,896,424Z" transform="translate(-63.98 -58.78)"/><path class="cls-4" d="M890.54,436.37H782.06c-45.54,0-82.46,35.12-82.46,78.45s36.92,78.45,82.46,78.45H890.54c45.54,0,82.46-35.13,82.46-78.45S936.08,436.37,890.54,436.37Z" transform="translate(-63.98 -58.78)"/><path class="cls-7" d="M814.05,500.54a34.19,34.19,0,0,0-2.95-7.62,21.19,21.19,0,0,0-4.81-6A21.65,21.65,0,0,0,799.4,483a27.49,27.49,0,0,0-9.17-1.4,26.77,26.77,0,0,0-13.17,3.08,25.86,25.86,0,0,0-9,8.22,37.07,37.07,0,0,0-5.15,11.71,54.4,54.4,0,0,0,0,26.75A37.07,37.07,0,0,0,768,543a25.86,25.86,0,0,0,9,8.22,26.66,26.66,0,0,0,13.17,3.08,23.79,23.79,0,0,0,9.9-1.94,22,22,0,0,0,7.36-5.35,25.2,25.2,0,0,0,4.82-8,38.66,38.66,0,0,0,2.27-9.76H830.9A45.3,45.3,0,0,1,827.22,545a38.54,38.54,0,0,1-8.49,12.24,37.71,37.71,0,0,1-12.58,8,43.6,43.6,0,0,1-15.92,2.8A45,45,0,0,1,771,564a42.09,42.09,0,0,1-14.38-10.77,47.94,47.94,0,0,1-9-15.92,61.07,61.07,0,0,1,0-38.66,48,48,0,0,1,9-15.92A42.89,42.89,0,0,1,771,471.92a44.32,44.32,0,0,1,19.19-4,50.63,50.63,0,0,1,15.12,2.21,39,39,0,0,1,12.51,6.42,33.33,33.33,0,0,1,8.76,10.24,35.63,35.63,0,0,1,4.15,13.77Z" transform="translate(-63.98 -58.78)"/><path class="cls-7" d="M886.81,467.9a44.33,44.33,0,0,1,19.2,4,43,43,0,0,1,14.38,10.83,48.39,48.39,0,0,1,9,15.92,61.07,61.07,0,0,1,0,38.66,48.29,48.29,0,0,1-9,15.92A42.18,42.18,0,0,1,906,564a48.73,48.73,0,0,1-38.39,0,42.09,42.09,0,0,1-14.38-10.77,47.94,47.94,0,0,1-9-15.92,60.88,60.88,0,0,1,0-38.66,48,48,0,0,1,9-15.92,42.89,42.89,0,0,1,14.38-10.83A44.32,44.32,0,0,1,886.81,467.9Zm0,13.65a26.77,26.77,0,0,0-13.17,3.08,25.86,25.86,0,0,0-9,8.22,37.07,37.07,0,0,0-5.15,11.71,54.4,54.4,0,0,0,0,26.75A37.07,37.07,0,0,0,864.61,543a25.86,25.86,0,0,0,9,8.22,29.72,29.72,0,0,0,26.35,0,25.86,25.86,0,0,0,9-8.22,37.3,37.3,0,0,0,5.15-11.71,54.4,54.4,0,0,0,0-26.75A37.3,37.3,0,0,0,909,492.85a25.86,25.86,0,0,0-9-8.22A26.78,26.78,0,0,0,886.81,481.55Z" transform="translate(-63.98 -58.78)"/><line class="cls-1" x1="304.36" y1="182.63" x2="349.7" y2="243.04"/><line class="cls-1" x1="395.04" y1="182.63" x2="349.7" y2="243.04"/><line class="cls-1" x1="590.56" y1="182.63" x2="635.91" y2="243.04"/><line class="cls-1" x1="681.24" y1="182.63" x2="635.91" y2="243.04"/><line class="cls-1" x1="876.77" y1="182.63" x2="922.11" y2="243.04"/><line class="cls-1" x1="967.45" y1="182.63" x2="922.11" y2="243.04"/><line class="cls-1" x1="46.48" y1="533.91" x2="91.82" y2="594.32"/><line class="cls-1" x1="137.16" y1="533.91" x2="91.82" y2="594.32"/><line class="cls-1" x1="371.62" y1="546.85" x2="416.96" y2="607.26"/><line class="cls-1" x1="462.3" y1="546.85" x2="416.96" y2="607.26"/><line class="cls-1" x1="696.33" y1="555.03" x2="772.32" y2="607.89"/><line class="cls-1" x1="847.72" y1="555.44" x2="772.32" y2="607.89"/></svg>